<svg width="16" height="15" viewBox="0 0 16 15" fill="none" xmlns="http://www.w3.org/2000/svg">
<path fill-rule="evenodd" clip-rule="evenodd" d="M8.50411 0.176397C8.00823 -0.0587983 7.43296 -0.058799 6.93707 0.176395C6.59379 0.339213 6.35027 0.647412 6.13449 0.995746C5.91755 1.34597 5.67953 1.82202 5.38313 2.41485L5.38313 2.41487L5.37152 2.43808L5.13262 2.91588C4.92937 3.32238 4.87027 3.42891 4.79607 3.50658C4.71952 3.58668 4.62775 3.65069 4.52612 3.69481C4.42759 3.73759 4.30719 3.75622 3.85549 3.80642L3.63863 3.83051L3.61261 3.83341H3.6126C2.90053 3.91252 2.3317 3.97572 1.90106 4.06331C1.47633 4.1497 1.0805 4.27759 0.803427 4.56029C0.406994 4.96475 0.220361 5.53011 0.298074 6.0911C0.352389 6.48319 0.594276 6.82163 0.884093 7.14391C1.17795 7.47065 1.59736 7.86015 2.12237 8.34767L2.14156 8.36549L2.37051 8.57806C2.7682 8.94735 2.87017 9.05181 2.9273 9.16305C2.98628 9.27794 3.0177 9.40494 3.01906 9.53407C3.02037 9.65894 2.97802 9.80143 2.79589 10.3205L2.78729 10.3451L2.78727 10.3451C2.51849 11.1111 2.30564 11.7178 2.18479 12.1897C2.06739 12.6482 2.00161 13.0984 2.15466 13.4882C2.37004 14.0368 2.83664 14.448 3.40797 14.5926C3.81283 14.6951 4.24732 14.5757 4.68345 14.4037C5.13116 14.2271 5.69808 13.9436 6.41287 13.5862L6.43627 13.5745L6.99206 13.2966C7.3668 13.1092 7.46913 13.0631 7.56733 13.0447C7.6686 13.0257 7.77259 13.0257 7.87385 13.0447C7.97206 13.0631 8.07439 13.1092 8.44912 13.2966L9.00491 13.5745L9.02838 13.5862C9.74315 13.9436 10.31 14.2271 10.7577 14.4037C11.1938 14.5757 11.6283 14.6951 12.0332 14.5926C12.6045 14.448 13.0712 14.0368 13.2865 13.4882C13.4396 13.0984 13.3738 12.6482 13.2564 12.1897C13.1355 11.7178 12.9227 11.1111 12.6539 10.3451V10.345L12.6453 10.3205C12.4632 9.80143 12.4208 9.65894 12.4221 9.53407C12.4235 9.40494 12.4549 9.27794 12.5139 9.16305C12.571 9.05181 12.673 8.94735 13.0707 8.57806L13.2996 8.36549L13.3188 8.3476C13.8438 7.86009 14.2633 7.47065 14.5571 7.14391C14.8469 6.82163 15.0888 6.48319 15.1431 6.0911C15.2209 5.53011 15.0342 4.96475 14.6377 4.56029C14.3607 4.27759 13.9649 4.1497 13.5401 4.06331C13.1095 3.97572 12.5406 3.91252 11.8286 3.83341L11.8025 3.83051L11.5857 3.80642C11.134 3.75622 11.0136 3.73759 10.9151 3.69481C10.8134 3.65069 10.7217 3.58668 10.6452 3.50658C10.5709 3.42891 10.5118 3.32238 10.3086 2.91587L10.0697 2.43809L10.058 2.41486C9.76163 1.82202 9.52367 1.34597 9.30671 0.995746C9.09095 0.647412 8.84746 0.339219 8.50411 0.176397Z" fill="#FFC250"/>
</svg>
